<svg xmlns="http://www.w3.org/2000/svg" viewBox="0 0 64 64">
  <defs>
    <linearGradient id="g" x1="0" y1="0" x2="1" y2="1">
      <stop offset="0" stop-color="#7c3aed"/>
      <stop offset="1" stop-color="#4f46e5"/>
    </linearGradient>
  </defs>
  <rect width="64" height="64" rx="14" fill="url(#g)"/>
  <g fill="none" stroke="#ffffff" stroke-width="4" stroke-linecap="round" stroke-linejoin="round">
    <path d="M20.9 34.55a12.8 12.8 0 0 1-3.66 2.58c2.14 1.6 3.9 3.34 5.5 5.5a12.8 12.8 0 0 1 2.58-3.66"/>
    <path d="M25 40c9.6-4.8 12.8-9.6 16-19.2-3.2-1.6-6.4-1.6-9.6 0C24.6 26 21.4 30.4 20 36z" transform="rotate(3 32 32)"/>
    <path d="M38 30.5c4.5 1 6.5 0 8.5-3.5-2-1.5-4-2-6.5-1.5"/>
    <path d="M33.5 25.9c-1-4.5 0-6.5 3.5-8.5 1.5 2 2 4 1.5 6.5"/>
    <circle cx="33" cy="31" r="2.4" fill="#fff" stroke="none"/>
  </g>
</svg>
